<?xml version="1.0" encoding="UTF-8" standalone="no"?>
<svg
   version="1.0"
   id="Layer_1"
   x="0px"
   y="0px"
   width="741.44672"
   height="110.55587"
   viewBox="0 0 741.44672 110.55587"
   enable-background="new 0 0 400 220"
   xml:space="preserve"
   sodipodi:docname="ldes-logo.svg"
   inkscape:version="1.2.2 (b0a8486541, 2022-12-01)"
   inkscape:export-filename="/home/pieter/Pictures/ldes-logo.png"
   inkscape:export-xdpi="222"
   inkscape:export-ydpi="222"
   xmlns:inkscape="http://www.inkscape.org/namespaces/inkscape"
   xmlns:sodipodi="http://sodipodi.sourceforge.net/DTD/sodipodi-0.dtd"
   xmlns="http://www.w3.org/2000/svg"
   xmlns:svg="http://www.w3.org/2000/svg"
   xmlns:rdf="http://www.w3.org/1999/02/22-rdf-syntax-ns#"
   xmlns:cc="http://creativecommons.org/ns#"
   xmlns:dc="http://purl.org/dc/elements/1.1/"><metadata
   id="metadata965"><rdf:RDF><cc:Work
       rdf:about=""><dc:format>image/svg+xml</dc:format><dc:type
         rdf:resource="http://purl.org/dc/dcmitype/StillImage" /></cc:Work></rdf:RDF></metadata><defs
   id="defs963" /><sodipodi:namedview
   pagecolor="#ffffff"
   bordercolor="#666666"
   borderopacity="1"
   objecttolerance="10"
   gridtolerance="10"
   guidetolerance="10"
   inkscape:pageopacity="0"
   inkscape:pageshadow="2"
   inkscape:window-width="1920"
   inkscape:window-height="1053"
   id="namedview961"
   showgrid="false"
   inkscape:zoom="1.1925666"
   inkscape:cx="364.34024"
   inkscape:cy="45.28049"
   inkscape:window-x="0"
   inkscape:window-y="0"
   inkscape:window-maximized="1"
   inkscape:current-layer="Layer_1"
   inkscape:showpageshadow="2"
   inkscape:pagecheckerboard="0"
   inkscape:deskcolor="#d1d1d1" />
<g
   id="g914"
   transform="matrix(0.64777486,0,0,0.64777486,-19.627578,-15.188524)">
	<path
   d="M 188.8,29.3 V 129 h 65.4 v 22.9 H 164.3 V 29.3 Z"
   id="path910"
   inkscape:connector-curvature="0"
   style="fill:#1d1d1b" />
	<path
   d="M 266,151.8 V 29.2 h 47.2 c 38.1,0 57.2,20.5 57.2,61.3 0,40.8 -19.1,61.3 -57.2,61.3 z m 47.2,-24.4 c 21.7,-0.1 32.6,-12.3 32.7,-36.8 C 345.8,66.1 335,53.8 313.2,53.8 h -22.7 v 73.6 z"
   id="path912"
   inkscape:connector-curvature="0"
   style="fill:#1d1d1b" />
</g>

<g
   id="g958"
   transform="matrix(0.64777486,0,0,0.64777486,-19.627578,-15.188524)"
   style="fill:#5252cf;fill-opacity:1;stroke:none;stroke-width:6.17498;stroke-dasharray:none;stroke-opacity:1">
	<path
   d="M 46.9,122.8 H 30.3 l 2.3,-18.7 H 51 L 57.2,75.6 H 39.5 l 2.2,-18 h 19.4 l 6.1,-28.1 h 23.3 l -6.1,28.1 h 24.5 l 6,-28.1 H 138 l -6.1,28.1 h 18.2 l -2.2,18 H 128 l -6.2,28.5 h 18.6 l -2.3,18.7 h -20.4 l -6.3,29.1 H 88.8 L 95,122.8 H 70 l -6.3,29.1 h -23 z m 52,-18.7 6.1,-28.5 H 80.4 l -6.3,28.5 z"
   id="path956"
   style="fill:#5252cf;fill-opacity:1;stroke:none;stroke-width:6.17498;stroke-dasharray:none;stroke-opacity:1"
   inkscape:connector-curvature="0" />
</g>

<text
   xml:space="preserve"
   style="font-style:normal;font-weight:normal;font-size:102.237px;line-height:1.25;font-family:sans-serif;letter-spacing:0px;word-spacing:0px;fill:#000000;fill-opacity:1;stroke:none;stroke-width:2.55592"
   x="221.39728"
   y="82.879524"
   id="text975"
   transform="scale(0.98639719,1.0137904)"><tspan
     sodipodi:role="line"
     id="tspan973"
     x="221.39728"
     y="82.879524"
     style="font-weight:bold;font-size:109.052px;letter-spacing:-5.13px;stroke-width:2.55592">ES  Xplorer</tspan></text>
</svg>
